<?xml version="1.0" standalone="no"?>
<!DOCTYPE svg PUBLIC "-//W3C//DTD SVG 20010904//EN"
 "http://www.w3.org/TR/2001/REC-SVG-20010904/DTD/svg10.dtd">
<svg version="1.0" xmlns="http://www.w3.org/2000/svg"
 width="1024.000000pt" height="1024.000000pt" viewBox="0 0 1024.000000 1024.000000"
 preserveAspectRatio="xMidYMid meet">

<g transform="translate(0.000000,1024.000000) scale(0.100000,-0.100000)"
fill="#db0b36" stroke="none">
<path d="M4310 7690 c-62 -7 -171 -37 -235 -65 -16 -7 -45 -18 -62 -25 -18 -7
-33 -16 -33 -20 0 -4 -13 -10 -29 -13 -16 -3 -36 -13 -44 -22 -9 -8 -20 -15
-26 -15 -6 0 -11 -4 -11 -8 0 -4 -12 -15 -27 -24 -16 -9 -38 -25 -50 -35 -55
-46 -64 -53 -72 -53 -6 0 -13 -9 -16 -20 -3 -11 -11 -20 -16 -20 -11 0 -69
-60 -69 -71 0 -5 -5 -9 -11 -9 -6 0 -22 -14 -37 -31 -31 -36 -34 -41 -102
-129 -28 -36 -54 -70 -59 -76 -5 -6 -19 -31 -31 -54 -12 -24 -29 -50 -36 -58
-8 -7 -14 -21 -14 -29 0 -9 -6 -24 -14 -32 -8 -9 -24 -41 -36 -71 -52 -132
-62 -157 -74 -195 -98 -299 -130 -537 -128 -960 0 -170 3 -332 5 -360 10 -122
39 -362 47 -380 4 -11 15 -56 24 -100 20 -96 42 -175 63 -230 36 -94 57 -144
89 -213 19 -40 34 -79 34 -87 0 -8 4 -15 8 -15 5 0 17 -18 27 -40 10 -22 21
-40 25 -40 4 0 13 -15 21 -32 14 -36 13 -35 96 -126 32 -34 63 -68 69 -75 6
-6 20 -19 30 -27 11 -8 42 -34 69 -56 28 -23 60 -44 73 -48 12 -4 22 -11 22
-15 0 -12 77 -61 95 -61 8 0 15 -4 15 -9 0 -5 26 -19 58 -30 31 -12 65 -26 74
-31 10 -6 26 -10 36 -10 11 0 32 -7 48 -15 17 -8 84 -27 150 -42 109 -25 135
-27 319 -27 161 1 223 5 315 23 102 19 218 49 275 71 11 5 36 14 55 21 19 7
47 21 62 31 14 10 32 18 40 18 8 0 23 8 34 19 11 10 30 22 42 25 11 4 38 22
59 41 21 19 41 35 45 35 14 0 137 119 203 195 79 91 83 97 117 150 18 28 35
52 38 55 3 3 26 40 50 83 24 42 47 77 51 77 8 0 29 -64 29 -90 0 -9 6 -24 13
-35 8 -11 24 -56 36 -100 33 -116 70 -233 92 -287 10 -26 19 -54 19 -63 0 -37
88 -211 114 -227 6 -3 25 -18 41 -32 l30 -26 203 0 203 0 45 31 c25 17 48 37
51 45 2 7 12 16 21 19 10 3 28 22 42 42 14 21 38 51 54 68 15 16 37 46 48 65
10 19 30 53 43 75 14 22 25 48 25 58 0 9 3 17 8 17 4 0 12 15 18 33 7 17 16
46 22 62 24 69 32 106 52 218 22 128 26 286 10 318 -9 16 -22 19 -88 19 -115
0 -118 -2 -132 -73 -31 -160 -119 -357 -159 -357 -5 0 -13 -9 -16 -20 -3 -11
-14 -20 -24 -20 -9 0 -21 -4 -27 -9 -32 -30 -203 -30 -264 1 -43 22 -139 126
-156 168 -9 22 -19 40 -23 40 -4 0 -19 26 -33 58 -26 56 -37 88 -79 222 -11
36 -27 80 -35 98 -8 18 -14 43 -14 57 0 13 -4 35 -10 50 -7 19 -6 33 5 54 8
16 21 46 29 67 7 22 23 62 33 89 11 28 26 85 33 128 8 42 18 77 22 77 4 0 8 9
8 20 0 28 53 302 86 445 9 39 18 84 21 100 2 17 8 39 12 50 9 21 40 160 66
290 9 44 27 123 40 175 13 52 27 119 31 148 3 28 10 52 13 52 4 0 15 46 25
103 9 56 22 113 27 127 5 14 13 48 19 75 5 28 19 93 30 145 12 52 30 138 42
190 11 52 26 104 34 115 8 11 14 35 14 55 0 19 7 60 15 90 23 85 20 119 -11
130 -28 11 -542 12 -638 1 -68 -7 -69 -9 -86 -106 -7 -38 -20 -104 -30 -145
-10 -41 -25 -118 -35 -170 -9 -52 -27 -138 -40 -190 -13 -52 -31 -138 -40
-190 -9 -52 -21 -108 -27 -125 -5 -16 -16 -65 -23 -108 -8 -42 -18 -85 -24
-95 -9 -16 -10 -16 -16 3 -4 11 -13 35 -21 53 -8 18 -14 39 -14 47 0 8 -3 15
-8 15 -4 0 -12 15 -19 33 -60 171 -87 235 -180 422 -46 95 -84 162 -102 182
-6 7 -11 17 -11 23 0 6 -11 22 -23 36 -13 14 -35 43 -48 64 -13 22 -30 40 -36
40 -7 0 -13 4 -13 9 0 11 -11 23 -77 78 -27 24 -63 54 -79 68 -33 29 -40 34
-75 54 -87 51 -149 80 -184 86 -22 4 -46 13 -54 19 -17 13 -402 18 -501 6z
m460 -362 c25 -12 52 -24 60 -28 24 -11 65 -34 70 -40 3 -3 21 -17 40 -30 49
-33 220 -209 220 -226 0 -8 4 -14 9 -14 5 0 12 -8 15 -17 3 -10 17 -30 30 -44
13 -14 32 -41 41 -60 10 -19 21 -36 25 -39 11 -8 70 -129 70 -145 0 -7 6 -20
13 -27 6 -7 18 -29 25 -48 8 -19 23 -57 34 -85 48 -123 81 -213 91 -252 6 -24
14 -43 19 -43 4 0 8 -10 8 -22 0 -13 16 -75 36 -138 19 -63 39 -129 45 -146 6
-19 5 -50 -1 -85 -5 -30 -19 -137 -30 -239 -20 -178 -35 -265 -65 -395 -47
-204 -78 -321 -105 -400 -17 -49 -34 -101 -37 -115 -2 -14 -13 -44 -24 -67
-10 -24 -19 -48 -19 -54 0 -15 -123 -258 -153 -301 -13 -20 -30 -50 -37 -67
-7 -17 -19 -31 -26 -31 -8 0 -14 -6 -14 -13 0 -12 -125 -147 -136 -147 -3 0
-14 -9 -26 -20 -12 -11 -28 -20 -35 -20 -7 0 -13 -4 -13 -10 0 -5 -5 -10 -11
-10 -6 0 -23 -8 -37 -18 -51 -34 -113 -47 -233 -47 -83 0 -121 4 -132 14 -9 7
-23 11 -32 8 -8 -4 -17 -2 -20 3 -3 5 -23 14 -44 20 -67 18 -171 109 -248 216
-27 39 -103 190 -103 206 0 7 -9 35 -20 63 -38 98 -68 225 -104 440 -60 355
-58 1084 4 1525 24 168 60 327 91 398 10 23 19 52 19 62 0 41 126 267 176 317
7 7 14 16 16 21 1 4 28 28 58 52 30 25 57 47 60 50 14 14 52 29 86 36 22 4 42
12 46 18 19 29 232 24 298 -6z"/>
<path d="M3075 3403 c-13 -13 -15 -50 -14 -237 0 -123 5 -229 10 -237 7 -12
305 -14 2057 -17 l2049 -2 7 31 c10 54 7 439 -5 460 -10 20 -30 20 -2050 19
-1814 -1 -2041 -3 -2054 -17z"/>
</g>
</svg>
