<?xml version="1.0" standalone="no"?>
<!DOCTYPE svg PUBLIC "-//W3C//DTD SVG 1.1//EN" "http://www.w3.org/Graphics/SVG/1.1/DTD/svg11.dtd">
<svg xmlns="http://www.w3.org/2000/svg" xmlns:xlink="http://www.w3.org/1999/xlink" width="30" zoomAndPan="magnify" viewBox="0 0 30 30.000001" height="30.000001907348633" preserveAspectRatio="xMidYMid meet" version="1.0"><defs><g/></defs><g fill="#db0b36" fill-opacity="1"><g transform="translate(6.131552, 23.71444)"><g><path d="M 1.554688 0 L 4.375 0 C 4.816406 0 5.152344 -0.339844 5.152344 -0.777344 L 5.152344 -8.652344 C 5.152344 -9.074219 5.492188 -9.410156 5.914062 -9.410156 C 6.351562 -9.410156 6.691406 -9.074219 6.691406 -8.652344 L 6.691406 -0.777344 C 6.691406 -0.339844 7.027344 0 7.46875 0 L 10.289062 0 C 10.730469 0 11.066406 -0.355469 11.066406 -0.777344 L 11.066406 -8.652344 C 11.066406 -9.074219 11.40625 -9.410156 11.828125 -9.410156 C 12.265625 -9.410156 12.605469 -9.074219 12.605469 -8.652344 L 12.605469 -0.777344 C 12.605469 -0.339844 12.941406 0 13.382812 0 L 16.203125 0 C 16.644531 0 16.980469 -0.339844 16.980469 -0.777344 L 16.980469 -12.738281 C 16.980469 -13.179688 16.644531 -13.515625 16.203125 -13.515625 L 10.425781 -13.515625 C 9.984375 -13.515625 9.648438 -13.179688 9.648438 -12.738281 L 9.648438 -11.421875 C 9.648438 -11 9.308594 -10.660156 8.871094 -10.660156 C 8.449219 -10.660156 8.109375 -11 8.109375 -11.421875 L 8.109375 -12.738281 C 8.109375 -13.179688 7.773438 -13.515625 7.332031 -13.515625 L 1.554688 -13.515625 C 1.113281 -13.515625 0.777344 -13.179688 0.777344 -12.738281 L 0.777344 -0.777344 C 0.777344 -0.339844 1.113281 0 1.554688 0 Z M 1.554688 0 "/></g></g></g><g fill="#db0b36" fill-opacity="1"><g transform="translate(6.127387, 8.307548)"><g><path d="M 1.417969 0 L 4.78125 0 C 5.171875 0 5.425781 -0.253906 5.425781 -0.640625 L 5.425781 -4.019531 C 5.425781 -4.410156 5.171875 -4.648438 4.78125 -4.648438 L 1.402344 -4.648438 C 1.015625 -4.648438 0.777344 -4.410156 0.777344 -4.019531 L 0.777344 -0.640625 C 0.777344 -0.253906 1.03125 0 1.417969 0 Z M 1.417969 0 "/></g></g></g><g fill="#db0b36" fill-opacity="1"><g transform="translate(17.703258, 8.307548)"><g><path d="M 1.417969 0 L 4.78125 0 C 5.171875 0 5.425781 -0.253906 5.425781 -0.640625 L 5.425781 -4.019531 C 5.425781 -4.410156 5.171875 -4.648438 4.78125 -4.648438 L 1.402344 -4.648438 C 1.015625 -4.648438 0.777344 -4.410156 0.777344 -4.019531 L 0.777344 -0.640625 C 0.777344 -0.253906 1.03125 0 1.417969 0 Z M 1.417969 0 "/></g></g></g></svg>